<?xml version="1.0" standalone="no"?>
<!DOCTYPE svg PUBLIC "-//W3C//DTD SVG 20010904//EN"
 "http://www.w3.org/TR/2001/REC-SVG-20010904/DTD/svg10.dtd">
<svg version="1.0" xmlns="http://www.w3.org/2000/svg"
 width="320.000000pt" height="295.000000pt" viewBox="0 0 320.000000 295.000000"
 preserveAspectRatio="xMidYMid meet">

<g transform="translate(0.000000,295.000000) scale(0.100000,-0.100000)"
fill="#000000" stroke="none">
<path d="M1543 2718 c-5 -7 -35 -56 -65 -108 -67 -115 -177 -305 -268 -460
-37 -63 -132 -225 -210 -360 -78 -135 -173 -297 -210 -360 -37 -63 -90 -154
-118 -202 -28 -47 -48 -89 -45 -92 4 -3 63 -6 133 -6 109 0 129 3 142 18 12
14 129 210 354 590 154 261 289 484 295 487 5 4 443 -713 495 -811 6 -11 43
-73 82 -137 40 -64 72 -121 72 -126 0 -5 7 -12 16 -15 25 -10 272 -7 278 3 4
5 -7 31 -23 58 -56 94 -209 350 -311 523 -57 96 -143 240 -190 320 -48 80
-140 235 -206 345 -65 110 -121 204 -123 210 -6 15 -82 135 -86 135 -1 0 -7
-6 -12 -12z"/>
<path d="M1314 1628 c-126 -222 -234 -412 -240 -423 -6 -11 -62 -108 -123
-215 l-112 -195 727 -3 c400 -1 730 0 733 3 3 3 -1 16 -9 28 -15 24 -158 258
-199 325 -14 23 -61 100 -104 170 -42 70 -117 192 -166 272 -49 80 -129 211
-178 292 -48 81 -90 148 -94 148 -3 0 -108 -181 -235 -402z m287 146 c20 -32
133 -216 251 -409 119 -192 229 -372 247 -399 17 -28 31 -54 31 -58 0 -4 -252
-8 -560 -8 -353 0 -560 4 -560 10 0 5 20 42 44 82 47 79 247 425 397 686 51
89 98 161 103 159 5 -2 26 -30 47 -63z"/>
<path d="M1506 1612 c-67 -118 -122 -214 -166 -292 -123 -214 -180 -319 -180
-329 0 -8 109 -11 415 -11 263 1 415 4 415 11 0 5 -40 73 -89 152 -48 78 -145
235 -215 350 -71 114 -129 207 -129 207 -1 0 -24 -39 -51 -88z"/>
<path d="M591 463 c-65 -32 -88 -108 -55 -179 20 -42 58 -63 116 -65 55 -2 80
6 96 32 18 29 4 40 -15 12 -12 -18 -25 -23 -58 -23 -60 0 -95 41 -95 110 0 65
16 97 55 110 40 13 85 -2 92 -30 9 -32 25 -23 21 13 -3 32 -3 32 -63 34 -41 2
-71 -2 -94 -14z"/>
<path d="M1027 472 c-18 -4 -17 -5 2 -18 23 -17 26 -45 15 -153 -5 -43 -11
-61 -21 -61 -8 0 -11 -5 -8 -10 3 -5 24 -10 46 -10 21 0 39 5 39 10 0 6 -7 10
-15 10 -12 0 -15 16 -15 87 l0 86 76 -96 c42 -53 82 -97 88 -97 9 0 15 32 19
112 5 91 9 115 23 125 15 11 11 13 -31 13 -43 0 -47 -2 -31 -13 21 -15 36
-140 19 -150 -6 -4 -40 31 -76 77 -65 81 -88 97 -130 88z"/>
<path d="M1317 445 c-6 -40 -1 -43 23 -13 14 19 26 24 45 21 24 -5 25 -7 25
-93 0 -97 -5 -120 -26 -120 -8 0 -14 -4 -14 -10 0 -6 27 -10 60 -10 33 0 60 4
60 10 0 6 -7 10 -15 10 -12 0 -15 18 -15 104 0 74 4 105 13 109 19 7 57 -11
57 -28 0 -8 5 -15 10 -15 6 0 10 15 10 33 l0 32 -114 0 -114 0 -5 -30z"/>
<path d="M2311 462 c-50 -27 -76 -77 -67 -132 9 -55 35 -88 82 -105 72 -24
149 12 174 83 40 114 -81 212 -189 154z m101 -16 c35 -26 50 -114 28 -170 -22
-60 -99 -54 -125 9 -26 60 -16 144 19 167 17 12 59 9 78 -6z"/>
<path d="M2863 463 c-36 -25 -32 -85 8 -115 48 -37 79 -66 79 -77 0 -15 -30
-41 -46 -41 -9 0 -29 13 -45 30 l-30 30 3 -33 c3 -31 4 -32 58 -35 45 -2 60 1
78 18 21 20 28 53 16 84 -3 8 -28 29 -55 47 -35 22 -49 38 -49 54 0 47 56 60
75 17 14 -31 25 -28 25 8 0 29 -1 30 -47 29 -27 0 -58 -7 -70 -16z"/>
<path d="M148 458 c8 -8 12 -48 12 -114 0 -96 -1 -102 -22 -110 -16 -5 10 -9
77 -11 107 -4 125 3 125 51 0 19 -2 18 -23 -7 -19 -24 -28 -28 -62 -25 l-40 3
0 45 c0 42 2 45 28 48 19 2 33 -3 43 -15 12 -16 13 -13 13 27 0 35 -2 41 -10
28 -6 -12 -22 -18 -44 -18 -35 0 -35 0 -35 45 0 29 5 46 13 46 34 4 63 -2 73
-16 16 -22 24 -19 24 10 0 25 -1 25 -92 25 -72 0 -89 -3 -80 -12z"/>
<path d="M383 459 c14 -8 17 -26 17 -114 0 -63 -4 -105 -10 -105 -5 0 -10 -4
-10 -10 0 -5 23 -10 50 -10 28 0 50 5 50 10 0 6 -7 10 -15 10 -12 0 -15 18
-15 105 0 88 3 106 18 114 13 8 3 10 -43 10 -46 0 -56 -2 -42 -10z"/>
<path d="M883 459 c14 -8 17 -26 17 -114 0 -87 -3 -105 -15 -105 -8 0 -15 -4
-15 -10 0 -5 25 -10 55 -10 30 0 55 5 55 10 0 6 -7 10 -15 10 -12 0 -15 18
-15 105 0 88 3 106 18 114 13 8 3 10 -43 10 -46 0 -56 -2 -42 -10z"/>
<path d="M1604 454 c12 -11 16 -36 16 -99 0 -92 -5 -115 -26 -115 -8 0 -14 -4
-14 -10 0 -6 40 -10 99 -10 l99 0 11 32 c14 40 7 47 -14 14 -14 -21 -25 -26
-61 -26 l-44 0 0 50 c0 49 1 50 30 50 18 0 33 -6 36 -15 4 -8 10 -12 15 -9 12
7 11 64 -1 64 -5 0 -10 -4 -10 -10 0 -5 -16 -10 -35 -10 -35 0 -35 0 -35 45 0
25 5 46 10 46 6 1 19 1 30 1 35 0 40 -2 40 -17 0 -8 5 -15 10 -15 6 0 10 11
10 25 0 25 -1 25 -91 25 -82 0 -89 -1 -75 -16z"/>
<path d="M1838 463 c15 -6 18 -223 2 -223 -5 0 -10 -4 -10 -10 0 -5 23 -10 50
-10 48 0 66 12 35 24 -10 3 -15 19 -15 46 0 53 22 53 54 1 40 -63 59 -71 158
-71 52 0 88 4 88 10 0 6 -7 10 -15 10 -12 0 -15 18 -15 105 0 88 3 106 18 114
13 8 3 10 -43 10 -46 0 -56 -2 -42 -10 14 -8 17 -26 17 -114 l0 -105 -33 0
c-33 0 -43 8 -86 69 l-24 34 23 17 c16 12 23 28 23 50 0 49 -23 60 -117 59
-45 0 -75 -3 -68 -6z m117 -17 c11 -8 18 -25 17 -44 -1 -43 -8 -52 -43 -52
-28 0 -29 2 -29 48 0 65 15 78 55 48z"/>
<path d="M2563 459 c14 -8 17 -26 17 -114 0 -87 -3 -105 -15 -105 -8 0 -15 -4
-15 -10 0 -13 97 -13 105 0 3 6 -1 10 -9 10 -12 0 -16 11 -16 45 0 60 19 59
58 -4 25 -41 37 -51 67 -57 20 -3 38 -4 40 -2 3 2 -15 26 -40 53 -51 54 -53
64 -25 90 25 23 26 67 2 88 -14 13 -38 17 -103 17 -62 -1 -79 -3 -66 -11z
m115 -15 c24 -17 30 -62 10 -82 -7 -7 -22 -12 -35 -12 -21 0 -23 5 -23 48 0
65 9 74 48 46z"/>
</g>
</svg>
